PathFileType	3	(X/Y/Z)	D:\minhoCalibration\240510\subject1_KPNP\preferred\preferred17.trc
DataRate	CameraRate	NumFrames	NumMarkers	Units	OrigDataRate	OrigDataStartFrame	OrigNumFrames
200.0	200.0	36	10	mm	200.0	343	190	
Frame#	Time	Left_Ankle_Outer1			Left_Ankle_Inner1			Left_Knee_Outer1			Left_Knee_Inner1			Left_Wrist1			Right_Wrist1			Right_Knee_Inner1			Right_Knee_Outer1			Right_Ankle_Inner1			Right_Ankle_Outer1			
		X1	Y1	Z1	X2	Y2	Z2	X3	Y3	Z3	X4	Y4	Z4	X5	Y5	Z5	X6	Y6	Z6	X7	Y7	Z7	X8	Y8	Z8	X9	Y9	Z9	X10	Y10	Z10	
343	1.705	-514.83533	134.26389	-575.83868	-566.64349	136.0498	-552.4884	-478.32916	559.69427	-399.73529	-588.27679	521.70435	-417.85086	-483.42679	942.87036	-619.62244	-728.71777	958.84039	-876.80273	-732.85065	482.03821	-876.05536	-770.75641	529.03699	-973.42133	-645.57349	106.89101	-1096.822	-727.60046	115.30212	-1177.6635
344	1.71	-512.44287	134.35014	-575.0058	-564.35858	135.98317	-552.48553	-478.03262	558.57965	-396.58646	-587.95734	520.97705	-414.92609	-481.60376	941.42523	-617.12848	-728.84021	958.15393	-872.38959	-735.35486	480.71393	-870.68463	-773.72174	528.06189	-968.12958	-645.80841	107.84806	-1095.0664	-727.5127	116.6658	-1176.3534
345	1.715	-509.37247	134.3945	-574.11877	-561.64044	135.98518	-552.49573	-478.00952	557.52386	-393.43561	-587.61139	520.29718	-412.21823	-479.19174	940.49438	-614.63202	-729.2981	957.34143	-866.95111	-738.17413	479.41507	-864.99152	-776.94562	527.2251	-962.54504	-646.22351	109.21738	-1093.0757	-727.40601	118.33347	-1174.7803
346	1.72	-506.14435	134.3564	-573.15936	-558.62067	135.87489	-552.51184	-478.0719	556.50702	-390.30472	-587.21088	519.64026	-409.89499	-476.85843	939.64172	-612.08563	-729.48071	956.41754	-862.4754	-741.25122	478.17038	-858.86517	-780.36737	526.48547	-956.6925	-646.58301	110.90605	-1090.968	-727.2702	120.45411	-1173.0881
347	1.725	-502.46274	134.35944	-572.13947	-555.22723	135.62924	-552.8667	-478.26886	555.52661	-387.17914	-587.10413	518.99677	-407.84283	-474.45374	938.98004	-609.49023	-729.59387	955.73993	-857.36285	-744.73242	477.14911	-852.2569	-784.27368	525.90674	-950.34705	-647.03668	112.96638	-1088.761	-727.20538	122.89085	-1171.2089
348	1.73	-498.57819	134.26256	-571.08966	-551.83789	135.59317	-553.14679	-478.57242	554.53552	-384.14139	-586.84314	518.37195	-406.20718	-472.06894	938.57361	-606.76086	-729.31952	955.16187	-852.81976	-748.46259	476.26743	-845.14014	-788.5376	525.58325	-943.52692	-647.82373	115.82357	-1086.1732	-727.25824	126.02964	-1168.8705
349	1.735	-494.43491	134.14093	-570.04468	-548.11609	135.43631	-553.51581	-478.83853	553.53931	-381.29742	-586.7749	517.56976	-404.87457	-469.58508	938.33789	-603.98132	-729.17096	954.89032	-847.41333	-752.70398	475.87683	-837.42627	-793.2135	525.50665	-936.23169	-648.68799	119.12659	-1083.3094	-727.52509	129.50778	-1166.379
350	1.74	-490.34149	133.82733	-569.09375	-544.33405	135.18579	-553.86176	-479.08539	552.48224	-378.62286	-586.57727	516.61469	-404.08847	-467.09241	938.39978	-601.10266	-729.36511	954.09973	-840.7132	-757.41418	475.7356	-829.09125	-798.40375	525.80658	-928.25421	-649.72571	123.10294	-1080.0009	-728.16412	133.66368	-1163.3889
351	1.745	-486.40927	133.19008	-568.16101	-540.53113	134.82448	-554.21576	-479.31284	551.38202	-376.1272	-586.28662	515.55328	-403.57675	-464.57993	938.81268	-598.07507	-728.74518	954.47931	-834.80505	-762.46539	475.9646	-820.19824	-804.10272	526.49445	-919.5965	-651.1264	127.72127	-1076.3839	-729.0929	138.45618	-1159.8451
352	1.75	-482.44958	132.83859	-567.33521	-537.0097	134.46428	-554.74194	-479.47894	550.3183	-373.90643	-585.96875	514.2428	-403.46878	-462.0621	939.5434	-594.91241	-728.05975	954.8501	-829.59241	-768.05151	476.70557	-810.71698	-810.39581	527.63428	-910.59406	-652.87488	132.97328	-1072.2003	-730.51947	144.00745	-1155.6166
353	1.755	-478.47977	132.52811	-566.67291	-533.3172	134.08258	-555.3371	-479.60217	549.20953	-371.91324	-585.44238	513.10693	-403.48041	-459.58572	940.6153	-591.57593	-727.23822	955.55743	-824.07861	-774.00934	478.03131	-800.30255	-816.77661	529.05255	-900.30347	-655.0127	138.85947	-1067.4539	-732.41571	150.10091	-1150.7363
354	1.76	-474.94626	131.92253	-565.99585	-529.6366	133.63782	-555.74854	-479.57205	548.18677	-370.2276	-584.75098	511.93576	-403.76215	-457.1626	942.00592	-588.11926	-726.3941	955.34283	-816.87195	-780.00385	479.57693	-789.16388	-823.76581	530.99231	-889.53766	-657.87549	145.26395	-1061.8533	-734.85522	156.79002	-1145.0977
355	1.765	-471.69507	131.4874	-565.42249	-526.86609	133.04938	-556.05579	-479.46088	547.21606	-368.91528	-583.95673	510.84555	-404.34653	-454.81247	943.69257	-584.50018	-725.26678	956.93243	-811.0517	-786.7619	482.03946	-777.35681	-830.99048	533.30536	-877.78009	-661.32599	152.27859	-1055.416	-737.99432	164.04132	-1138.5441
356	1.77	-468.91061	130.94353	-564.90448	-523.31476	132.26735	-557.05267	-479.14468	546.41602	-367.81757	-582.85083	509.97607	-405.04916	-452.513	945.74231	-580.77118	-724.42615	957.7453	-805.88049	-793.37555	484.67471	-764.64227	-838.23199	536.00439	-865.46521	-665.51074	159.59909	-1048.0977	-741.73151	171.62878	-1131.2126
357	1.775	-466.50543	130.49126	-564.4928	-521.23694	132.15976	-557.69458	-478.62173	545.76556	-367.09525	-581.85699	509.28098	-405.83856	-450.28156	948.13507	-576.90137	-723.15106	959.57605	-799.95349	-800.4599	488.18719	-751.27905	-845.51233	539.15564	-852.31458	-670.08215	167.29645	-1039.912	-746.22498	179.42784	-1123.0479
358	1.78	-464.11044	130.35812	-564.42761	-519.23987	131.87546	-558.07129	-477.80853	545.27393	-366.60876	-580.62805	508.78519	-406.90875	-448.03348	950.82251	-573.00861	-722.24762	960.76074	-794.59753	-807.6405	492.28622	-737.63281	-852.46295	542.59741	-838.02252	-675.30463	175.29391	-1030.8593	-751.08136	187.57185	-1114.2091
359	1.785	-462.73785	129.89859	-563.95978	-517.51068	131.69952	-558.30414	-476.86569	545.01074	-366.47937	-579.2738	508.69064	-407.78561	-445.77719	953.78088	-569.16718	-721.07861	962.53674	-790.67609	-814.62927	497.23282	-722.62146	-859.66302	546.85028	-823.98315	-679.9798	183.86261	-1021.4348	-755.84558	196.0952	-1104.692
360	1.79	-461.40808	129.38837	-563.28564	-516.25037	131.47812	-558.23828	-475.7731	544.96216	-366.68842	-577.68469	509.10269	-408.59705	-443.40973	956.966	-565.47302	-720.33661	964.55615	-783.716	-821.25836	502.88467	-707.97266	-866.26062	551.17072	-808.58514	-684.2005	193.01747	-1011.4027	-760.53333	205.39308	-1094.4183
361	1.795	-460.02066	129.26828	-562.93359	-514.78979	131.59636	-558.43005	-474.54343	545.0957	-367.2413	-576.20575	509.64011	-409.37881	-440.93317	960.35217	-561.86371	-719.6347	967.0224	-778.22882	-826.90265	508.76093	-692.66394	-872.7431	556.06653	-793.2254	-687.81433	202.93817	-1000.9732	-765.10376	215.02455	-1083.1633
362	1.8	-458.89868	129.10454	-562.55048	-513.72839	131.5945	-558.33289	-473.1405	545.43469	-368.08136	-574.6167	510.38486	-410.18994	-438.35703	963.84918	-558.47803	-719.82153	968.87622	-771.67126	-831.35339	514.61414	-677.25916	-878.76373	561.27533	-777.21881	-690.7168	213.66696	-990.28839	-769.57721	224.35977	-1071.2188
363	1.805	-457.57428	129.13435	-562.24689	-512.3266	131.80421	-558.50275	-471.75946	545.9751	-369.18805	-572.88086	511.4357	-411.01624	-435.48715	967.42743	-555.45557	-719.79919	972.23279	-766.1084	-835.47839	521.47327	-660.86914	-884.32379	566.83966	-760.86951	-692.88007	225.28751	-979.36224	-773.73975	233.27393	-1058.7489
364	1.81	-456.20941	129.23845	-562.00122	-510.97794	132.12907	-558.56146	-470.19757	546.71326	-370.63696	-571.09821	512.60455	-412.10275	-432.37726	971.04004	-552.88513	-720.61731	975.53668	-759.51672	-838.45123	527.98853	-644.49542	-889.42194	572.62488	-744.16449	-693.97314	238.01085	-968.08966	-777.68665	241.90286	-1045.2716
365	1.815	-453.88672	130.04999	-562.07745	-509.57526	132.35248	-558.59045	-468.56418	547.60016	-372.3179	-569.13055	513.85419	-413.50253	-428.89499	974.67444	-550.89465	-721.93347	980.07007	-751.73608	-840.73035	534.64716	-627.63397	-894.08948	578.4765	-727.06909	-694.80615	251.47581	-956.62415	-781.62781	251.01378	-1031.4943
366	1.82	-452.99564	129.84659	-561.79865	-508.23212	132.64891	-558.6557	-466.76068	548.63269	-374.27319	-567.12445	515.09595	-415.2865	-425.11789	978.23352	-549.49237	-723.5578	984.25928	-743.06476	-842.06256	541.17914	-610.63861	-898.11176	584.56757	-709.37946	-695.12769	265.55887	-945.03479	-785.95624	259.61929	-1017.4209
367	1.825	-451.77441	130.03535	-561.63702	-507.21545	132.88589	-558.56097	-464.81403	549.81232	-376.52109	-564.96039	516.54584	-417.38586	-420.84387	981.70178	-549.12646	-724.91547	989.09271	-734.76379	-842.58521	547.58893	-593.06439	-901.51093	590.73981	-691.14709	-694.34412	281.13531	-932.4884	-789.93689	268.05084	-1003.166
368	1.83	-450.77347	130.14809	-561.55554	-506.01053	133.25655	-558.62018	-462.60959	551.06732	-378.98285	-562.54163	518.04565	-419.90384	-416.21054	984.8974	-549.80511	-726.78949	994.76422	-723.63898	-842.23706	554.12048	-574.83441	-904.22949	597.05798	-672.24219	-693.22839	297.14514	-919.16779	-794.24573	276.63257	-988.01447
369	1.835	-450.59634	129.93233	-561.12189	-504.84155	133.95978	-558.78821	-460.09521	552.53162	-381.6709	-559.74927	519.5282	-423.50092	-410.96152	987.8269	-551.79242	-728.43237	1000.295	-712.74719	-841.19617	560.66223	-555.81256	-906.43427	603.59076	-652.67834	-691.80548	313.03268	-905.07751	-796.22955	286.71478	-970.17633
370	1.84	-449.80182	130.40721	-561.18451	-504.13589	134.50854	-558.65039	-457.25793	554.14136	-384.67502	-557.13965	521.25171	-426.65552	-405.69473	990.54596	-555.02405	-729.75989	1006.2041	-701.26086	-839.08673	567.32263	-536.48975	-907.71484	610.26422	-632.03796	-689.73138	329.82849	-890.38989	-798.00995	296.00653	-953.40173
371	1.845	-448.87595	131.06303	-561.4812	-503.33023	135.28233	-558.56519	-454.09424	555.8891	-388.0293	-554.21704	523.3371	-429.59106	-400.03427	993.26392	-558.78241	-731.20361	1012.0558	-689.26074	-835.99768	574.34637	-516.18011	-908.30328	617.20642	-610.00623	-688.47015	346.4454	-874.91034	-796.93121	306.42822	-935.30792
372	1.85	-448.66522	131.51918	-561.36688	-502.74252	136.2646	-558.33679	-450.56107	557.82129	-391.54453	-550.88531	525.69849	-432.5437	-394.31381	996.06714	-563.19879	-732.06757	1017.7655	-676.90234	-831.84607	581.7616	-495.71423	-907.70898	624.59125	-585.82672	-687.27972	363.32178	-859.34271	-795.08862	316.92706	-918.78442
373	1.855	-448.32745	132.31691	-561.43683	-502.09109	137.52695	-558.08093	-446.20834	560.15802	-395.70734	-547.4953	528.22675	-435.35666	-388.71835	999.09753	-568.31952	-732.3172	1024.2523	-664.16809	-826.65833	589.9928	-474.92163	-906.5968	632.55695	-561.72394	-686.03137	381.19348	-843.20795	-794.92926	330.31479	-896.86456
374	1.86	-447.99341	133.51892	-561.4989	-501.81055	138.86952	-557.41711	-441.89124	562.52466	-399.73819	-543.71222	530.96143	-437.92386	-383.07285	1002.3846	-574.13013	-731.35901	1030.6587	-652.12781	-820.14532	598.99481	-453.22623	-904.58698	641.11914	-536.90472	-685.0957	399.53281	-826.82617	-792.84991	344.76776	-875.05725
375	1.865	-447.9472	134.73067	-561.40417	-501.63107	140.56351	-556.63757	-437.0961	565.07733	-403.83002	-539.52765	534.01526	-440.26248	-378.13486	1005.8544	-580.36102	-730.56818	1036.5815	-639.54889	-812.0542	608.63965	-430.77396	-901.4165	650.45923	-511.3558	-684.81976	418.24915	-810.22882	-789.50226	360.22287	-853.71368
376	1.87	-448.01605	136.37373	-561.2428	-501.53256	142.52505	-555.49304	-431.91556	567.87061	-407.99835	-535.18671	537.14038	-442.24176	-374.01874	1009.5613	-586.82806	-728.81268	1042.9302	-627.63739	-802.98962	618.93683	-409.26337	-897.11658	660.24591	-485.16803	-685.20355	437.40417	-793.45941	-785.75299	376.67517	-832.25812
377	1.875	-448.2301	138.11334	-561.00336	-501.7854	144.7509	-554.04285	-426.17569	570.88702	-412.13162	-530.48712	540.43353	-443.9043	-370.37018	1013.4979	-593.65942	-726.50623	1049.4503	-616.20197	-792.80066	630.4234	-386.07077	-891.10382	670.68817	-458.48102	-686.28674	457.03827	-776.6582	-781.82892	394.5607	-810.80811
378	1.88	-448.56372	139.92883	-560.80365	-502.08157	147.29169	-552.3905	-419.97992	573.95612	-416.44901	-525.37457	544.62537	-443.72241	-367.12402	1017.4676	-601.10187	-723.80194	1055.9404	-605.16699	-781.21783	642.63135	-363.52759	-883.48199	681.87061	-431.47226	-688.31799	477.13669	-759.81262	-778.59418	414.20111	-789.5224
